<?xml version="1.0" standalone="no"?>
<!DOCTYPE svg PUBLIC "-//W3C//DTD SVG 20010904//EN"
 "http://www.w3.org/TR/2001/REC-SVG-20010904/DTD/svg10.dtd">
<svg version="1.0" xmlns="http://www.w3.org/2000/svg"
 width="708.000000pt" height="708.000000pt" viewBox="0 0 708.000000 708.000000"
 preserveAspectRatio="xMidYMid meet">
<metadata>
Created by potrace 1.14, written by Peter Selinger 2001-2017
</metadata>
<g transform="translate(0.000000,708.000000) scale(0.100000,-0.100000)"
fill="#000000" stroke="none">
<path d="M1008 5902 c-3 -10 -4 -38 -2 -62 9 -150 15 -253 19 -395 12 -334 22
-518 31 -567 3 -18 7 -40 8 -47 5 -27 24 -23 30 6 16 73 24 116 31 178 4 28 8
61 10 75 6 38 15 110 19 160 11 111 22 198 31 244 15 74 47 94 113 72 50 -16
108 -40 132 -56 33 -20 1131 -560 1140 -560 6 0 10 -4 10 -10 0 -5 6 -10 13
-10 21 -1 56 -36 62 -63 6 -23 1 -30 -39 -58 -25 -18 -81 -51 -123 -74 -144
-76 -208 -112 -298 -167 -49 -30 -126 -73 -170 -95 -83 -42 -113 -58 -205
-113 -67 -40 -91 -54 -200 -116 -47 -27 -94 -54 -105 -61 -11 -7 -33 -19 -50
-28 -16 -9 -43 -25 -60 -35 -16 -11 -42 -26 -57 -32 -16 -7 -28 -16 -28 -20 0
-4 -5 -8 -11 -8 -6 0 -70 -35 -143 -78 -72 -43 -174 -102 -226 -132 -158 -88
-239 -142 -297 -196 -12 -11 53 -77 201 -205 21 -19 49 -43 61 -54 30 -26 66
-57 150 -130 39 -33 72 -62 75 -65 3 -3 48 -41 100 -84 52 -44 102 -87 111
-95 9 -9 25 -23 35 -31 11 -8 57 -46 104 -85 47 -38 94 -77 105 -86 11 -9 61
-50 110 -91 245 -201 337 -268 372 -268 24 0 13 19 -54 92 -38 40 -90 100
-118 133 -27 33 -59 69 -70 80 -17 18 -149 164 -180 199 -5 6 -44 50 -85 96
-41 47 -91 103 -110 125 -33 38 -114 124 -229 245 -57 59 -96 110 -85 110 3 0
2 6 -3 13 -23 28 3 71 68 113 36 22 65 38 289 158 58 31 112 61 120 66 8 5 56
30 105 56 50 26 95 50 100 54 9 7 168 92 265 142 25 13 47 25 50 28 7 8 399
229 505 285 50 26 95 51 100 55 6 4 26 17 45 28 19 10 86 49 147 85 62 37 151
86 198 111 46 25 95 54 107 66 13 12 41 31 63 42 62 32 76 47 64 70 -9 17 -85
57 -164 87 -11 5 -40 18 -63 30 -24 11 -50 21 -58 21 -8 0 -14 5 -14 10 0 6
-5 10 -11 10 -6 0 -50 18 -97 39 -48 21 -126 55 -174 75 -48 20 -122 53 -165
72 -101 47 -294 132 -313 139 -22 8 -235 95 -310 127 -25 11 -58 25 -75 32
-34 15 -42 18 -185 82 -58 25 -129 57 -158 70 -29 13 -55 24 -57 24 -3 0 -24
9 -48 19 -129 58 -295 124 -319 127 -15 2 -42 13 -60 24 -41 25 -74 26 -80 2z"/>
<path d="M5907 5899 c-15 -11 -36 -22 -48 -24 -11 -2 -30 -7 -42 -11 -20 -5
-288 -116 -362 -149 -16 -7 -70 -30 -120 -50 -83 -35 -122 -52 -260 -116 -27
-13 -52 -23 -55 -24 -3 0 -27 -11 -55 -24 -27 -12 -84 -36 -125 -52 -41 -16
-84 -34 -95 -39 -28 -12 -67 -24 -85 -25 -8 0 -37 -17 -64 -37 -27 -21 -52
-35 -56 -33 -5 3 -21 0 -37 -7 -15 -6 -30 -12 -33 -13 -17 -6 -78 -33 -246
-110 -169 -78 -228 -105 -244 -110 -3 -1 -27 -12 -55 -24 -27 -13 -84 -37
-125 -53 -106 -43 -143 -63 -157 -87 -11 -17 -10 -23 9 -41 12 -11 27 -20 34
-20 6 0 22 -11 35 -23 13 -13 67 -46 119 -72 52 -27 111 -59 130 -70 19 -12
38 -22 41 -21 4 1 15 -6 25 -16 11 -9 53 -34 94 -55 41 -21 117 -67 169 -101
52 -34 99 -62 104 -62 5 0 69 -33 141 -74 72 -40 156 -87 186 -103 30 -17 87
-48 125 -68 39 -21 108 -60 154 -87 46 -26 86 -48 89 -48 2 0 33 -20 68 -45
34 -25 68 -45 75 -45 13 0 260 -127 347 -179 29 -17 57 -31 62 -31 6 0 10 -4
10 -10 0 -5 5 -10 10 -10 6 0 36 -16 66 -35 30 -19 57 -35 60 -35 2 0 10 -4
17 -10 7 -5 27 -21 45 -36 17 -14 32 -29 32 -33 0 -18 -61 -95 -147 -188 -50
-54 -102 -110 -115 -124 -13 -14 -55 -61 -95 -105 -40 -43 -80 -89 -91 -101
-56 -66 -136 -154 -201 -221 -40 -43 -83 -89 -95 -103 -82 -100 -138 -171
-170 -218 l-38 -54 28 7 c16 4 31 11 34 14 3 4 17 13 31 20 15 8 37 24 50 36
25 23 298 249 364 303 143 113 270 216 282 229 8 8 31 27 51 42 20 15 48 38
62 52 15 14 53 48 85 75 32 28 81 70 108 95 27 25 58 52 69 60 10 8 39 34 63
58 25 23 47 42 50 42 5 0 59 49 112 102 29 29 31 35 19 52 -7 11 -21 25 -31
30 -11 6 -25 16 -32 23 -7 6 -108 69 -225 139 -117 70 -214 131 -216 136 -2 4
-8 8 -13 8 -5 0 -32 15 -61 33 -29 19 -60 37 -68 40 -8 4 -33 18 -55 30 -22
13 -71 41 -110 62 -38 21 -92 52 -120 68 -27 17 -75 43 -105 60 -30 16 -63 37
-72 45 -10 8 -18 12 -18 8 0 -4 -12 1 -27 12 -16 11 -68 41 -118 67 -49 26
-94 51 -100 55 -5 4 -30 19 -55 32 -68 38 -109 62 -180 105 -56 34 -204 115
-291 160 -37 19 -119 92 -119 107 0 20 23 44 45 48 11 2 40 14 65 27 146 78
294 151 305 151 7 0 15 3 17 8 3 7 166 89 553 277 355 173 383 186 420 189 61
6 85 -49 100 -234 3 -36 7 -80 10 -98 2 -19 7 -61 10 -95 7 -76 13 -121 21
-167 3 -19 8 -47 9 -62 7 -50 26 -108 35 -108 6 0 10 6 11 13 0 6 2 21 4 32
11 55 24 217 30 370 9 207 15 330 21 430 11 172 11 240 1 253 -14 18 -51 15
-80 -9z"/>
<path d="M4975 3558 c-38 -23 -74 -45 -80 -50 -5 -5 -43 -33 -83 -63 -41 -30
-70 -55 -66 -55 4 0 -5 -10 -22 -22 -28 -22 -63 -51 -88 -73 -6 -6 -29 -24
-51 -40 -21 -17 -46 -37 -55 -45 -9 -8 -31 -26 -50 -40 -18 -14 -38 -30 -44
-35 -6 -6 -66 -53 -134 -104 -128 -97 -167 -138 -182 -191 -16 -54 -26 -180
-35 -420 -11 -287 -29 -552 -40 -590 -2 -8 -7 -35 -10 -58 -10 -71 -42 -164
-74 -213 -48 -76 -170 -166 -252 -185 -19 -4 -41 -9 -49 -11 -51 -13 -217 -18
-279 -9 -110 17 -212 72 -300 164 -35 37 -79 109 -86 142 -1 3 -7 24 -13 47
-34 117 -50 286 -67 708 -9 226 -20 335 -41 415 -21 78 -51 110 -239 253 -32
24 -193 151 -210 165 -11 9 -40 33 -65 52 -25 19 -47 37 -50 40 -3 3 -45 37
-95 76 -219 173 -264 201 -250 152 4 -13 15 -32 25 -43 9 -11 30 -35 46 -54
53 -62 222 -242 421 -450 55 -58 125 -132 155 -164 l54 -58 2 -517 c1 -284 4
-537 7 -562 12 -120 19 -149 45 -205 31 -65 103 -167 162 -233 84 -93 242
-191 382 -236 66 -22 257 -33 341 -21 17 3 48 7 70 9 84 9 198 55 285 113 104
71 138 103 223 217 75 102 123 193 131 251 4 23 8 50 10 62 18 90 23 432 11
668 -8 167 -9 345 -1 389 13 80 20 88 202 283 172 182 174 184 266 284 47 52
105 114 127 139 59 63 125 150 119 155 -2 3 -36 -14 -73 -37z"/>
</g>
</svg>
